<svg width="15" height="15" viewBox="0 0 15 15" fill="none" xmlns="http://www.w3.org/2000/svg">
<path d="M12.4998 2.40634C13.239 2.40634 13.8432 3.01063 13.8433 3.74985V11.25C13.8432 11.9893 13.239 12.5935 12.4998 12.5935H2.49986C1.76067 12.5935 1.15639 11.9892 1.15635 11.25L1.16226 3.74985C1.16233 3.01129 1.76007 2.40641 2.49986 2.40634H12.4998ZM2.5935 10.6251C2.59358 10.9169 2.83295 11.1563 3.12479 11.1564H11.8748C12.1668 11.1564 12.4061 10.917 12.4061 10.6251V5.16925L8.21198 7.79121C7.82977 8.03225 7.36032 8.06273 6.9562 7.8819L6.78765 7.7922L2.5935 5.16827V10.6251ZM7.49932 6.76411L12.1725 3.84349H2.82809L7.49932 6.76411Z" fill="white" stroke="white" stroke-width="0.185761"/>
</svg>
