<svg width="222" height="35" viewBox="0 0 222 35" fill="none" xmlns="http://www.w3.org/2000/svg">
<mask id="path-1-outside-1_1_1070" maskUnits="userSpaceOnUse" x="-0.320503" y="-0.320503" width="222.641" height="35.1011" fill="black">
<rect fill="white" x="-0.320503" y="-0.320503" width="222.641" height="35.1011"/>
<path d="M204.77 1.68527C213.355 1.68527 220.315 8.64587 220.315 17.231C220.314 25.8159 213.355 32.7758 204.77 32.7758H17.23C8.64506 32.7758 1.68554 25.8159 1.68527 17.231C1.68527 8.64587 8.6449 1.68527 17.23 1.68527H204.77Z"/>
</mask>
<path d="M204.77 1.68527C213.355 1.68527 220.315 8.64587 220.315 17.231C220.314 25.8159 213.355 32.7758 204.77 32.7758H17.23C8.64506 32.7758 1.68554 25.8159 1.68527 17.231C1.68527 8.64587 8.6449 1.68527 17.23 1.68527H204.77Z" fill="#EFF0E6"/>
<path d="M220.315 17.231L222 17.2311V17.231H220.315ZM204.77 32.7758V34.461V32.7758ZM1.68527 17.231H1.7933e-05V17.2311L1.68527 17.231ZM17.23 1.68527V1.7933e-05V1.68527ZM204.77 1.68527V3.37053C212.424 3.37053 218.629 9.57648 218.629 17.231H220.315H222C222 7.71527 214.286 1.7933e-05 204.77 1.7933e-05V1.68527ZM220.315 17.231L218.629 17.231C218.629 24.8852 212.424 31.0905 204.77 31.0905V32.7758V34.461C214.286 34.461 222 26.7466 222 17.2311L220.315 17.231ZM204.77 32.7758V31.0905H17.23V32.7758V34.461H204.77V32.7758ZM17.23 32.7758V31.0905C9.57585 31.0905 3.37076 24.8852 3.37053 17.231L1.68527 17.231L1.7933e-05 17.2311C0.000311317 26.7466 7.71427 34.461 17.23 34.461V32.7758ZM1.68527 17.231H3.37053C3.37053 9.57648 9.57577 3.37053 17.23 3.37053V1.68527V1.7933e-05C7.71402 1.82917e-05 1.7933e-05 7.71527 1.7933e-05 17.231H1.68527ZM17.23 1.68527V3.37053H204.77V1.68527V1.7933e-05H17.23V1.68527Z" fill="#232323" mask="url(#path-1-outside-1_1_1070)"/>
</svg>
