<svg width="255" height="91" viewBox="0 0 255 91" fill="none" xmlns="http://www.w3.org/2000/svg">
<mask id="path-1-outside-1_1_1183" maskUnits="userSpaceOnUse" x="-0.469095" y="-0.469095" width="256.188" height="91.067" fill="black">
<rect fill="white" x="-0.469095" y="-0.469095" width="256.188" height="91.067"/>
<path d="M225.447 2.53311C240.37 2.53312 252.467 14.6303 252.467 29.553V48.1291C252.467 63.0518 240.37 75.149 225.447 75.149H207.006L199.694 87.8136L192.382 75.149H29.553C14.6303 75.149 2.53311 63.0518 2.53311 48.1291V29.553C2.53311 14.6303 14.6303 2.53311 29.553 2.53311H225.447Z"/>
</mask>
<path d="M225.447 2.53311C240.37 2.53312 252.467 14.6303 252.467 29.553V48.1291C252.467 63.0518 240.37 75.149 225.447 75.149H207.006L199.694 87.8136L192.382 75.149H29.553C14.6303 75.149 2.53311 63.0518 2.53311 48.1291V29.553C2.53311 14.6303 14.6303 2.53311 29.553 2.53311H225.447Z" fill="white"/>
<path d="M225.447 2.53311V2.38594e-07V2.53311ZM252.467 48.1291H255H252.467ZM225.447 75.149V77.6821V75.149ZM207.006 75.149V72.6159C206.101 72.6159 205.265 73.0987 204.812 73.8824L207.006 75.149ZM199.694 87.8136L197.5 89.0802C197.952 89.8639 198.789 90.3467 199.694 90.3467C200.599 90.3467 201.435 89.8639 201.887 89.0802L199.694 87.8136ZM192.382 75.149L194.575 73.8824C194.123 73.0987 193.287 72.6159 192.382 72.6159V75.149ZM2.53311 48.1291H2.38594e-07H2.53311ZM225.447 2.53311V5.06623C238.971 5.06623 249.934 16.0293 249.934 29.553H252.467H255C255 13.2313 241.769 7.63501e-06 225.447 2.38594e-07V2.53311ZM252.467 29.553H249.934V48.1291H252.467H255V29.553H252.467ZM252.467 48.1291H249.934C249.934 61.6528 238.971 72.6159 225.447 72.6159V75.149V77.6821C241.769 77.6821 255 64.4508 255 48.1291H252.467ZM225.447 75.149V72.6159H207.006V75.149V77.6821H225.447V75.149ZM207.006 75.149L204.812 73.8824L197.5 86.547L199.694 87.8136L201.887 89.0802L209.199 76.4156L207.006 75.149ZM199.694 87.8136L201.887 86.547L194.575 73.8824L192.382 75.149L190.188 76.4156L197.5 89.0802L199.694 87.8136ZM192.382 75.149V72.6159H29.553V75.149V77.6821H192.382V75.149ZM29.553 75.149V72.6159C16.0293 72.6159 5.06623 61.6528 5.06623 48.1291H2.53311H2.38594e-07C1.67016e-06 64.4508 13.2313 77.6821 29.553 77.6821V75.149ZM2.53311 48.1291H5.06623V29.553H2.53311H2.38594e-07V48.1291H2.53311ZM2.53311 29.553H5.06623C5.06623 16.0293 16.0293 5.06623 29.553 5.06623V2.53311V2.38594e-07C13.2313 2.38594e-07 2.38594e-07 13.2313 2.38594e-07 29.553H2.53311ZM29.553 2.53311V5.06623H225.447V2.53311V2.38594e-07H29.553V2.53311Z" fill="#232323" mask="url(#path-1-outside-1_1_1183)"/>
</svg>
