<svg width="222" height="55" viewBox="0 0 222 55" fill="none" xmlns="http://www.w3.org/2000/svg">
<mask id="path-1-outside-1_1_1173" maskUnits="userSpaceOnUse" x="-0.470085" y="-0.470085" width="222.632" height="56.1595" fill="black">
<rect fill="white" x="-0.470085" y="-0.470085" width="222.632" height="56.1595"/>
<path d="M200.538 2.53846C210.819 2.53847 219.154 10.8729 219.154 21.1538C219.154 31.4348 210.819 39.7692 200.538 39.7692H55.3457L49.0084 52.4615L42.671 39.7692H21.1538C10.8729 39.7692 2.53846 31.4348 2.53846 21.1538C2.53846 10.8729 10.8729 2.53846 21.1538 2.53846H200.538Z"/>
</mask>
<path d="M200.538 2.53846C210.819 2.53847 219.154 10.8729 219.154 21.1538C219.154 31.4348 210.819 39.7692 200.538 39.7692H55.3457L49.0084 52.4615L42.671 39.7692H21.1538C10.8729 39.7692 2.53846 31.4348 2.53846 21.1538C2.53846 10.8729 10.8729 2.53846 21.1538 2.53846H200.538Z" fill="white"/>
<path d="M200.538 2.53846V2.39097e-07V2.53846ZM200.538 39.7692V42.3077V39.7692ZM55.3457 39.7692V37.2308C54.3837 37.2308 53.5044 37.7746 53.0746 38.6353L55.3457 39.7692ZM49.0084 52.4615L46.7373 53.5955C47.167 54.4562 48.0464 55 49.0084 55C49.9704 55 50.8497 54.4562 51.2795 53.5955L49.0084 52.4615ZM42.671 39.7692L44.9421 38.6353C44.5124 37.7746 43.633 37.2308 42.671 37.2308V39.7692ZM21.1538 2.53846V2.39097e-07V2.53846ZM200.538 2.53846V5.07692C209.417 5.07693 216.615 12.2748 216.615 21.1538H219.154H221.692C221.692 9.4709 212.221 8.84662e-06 200.538 2.39097e-07V2.53846ZM219.154 21.1538H216.615C216.615 30.0329 209.417 37.2308 200.538 37.2308V39.7692V42.3077C212.221 42.3077 221.692 32.8368 221.692 21.1538H219.154ZM200.538 39.7692V37.2308H55.3457V39.7692V42.3077H200.538V39.7692ZM55.3457 39.7692L53.0746 38.6353L46.7373 51.3276L49.0084 52.4615L51.2795 53.5955L57.6168 40.9032L55.3457 39.7692ZM49.0084 52.4615L51.2795 51.3276L44.9421 38.6353L42.671 39.7692L40.3999 40.9032L46.7373 53.5955L49.0084 52.4615ZM42.671 39.7692V37.2308H21.1538V39.7692V42.3077H42.671V39.7692ZM21.1538 39.7692V37.2308C12.2748 37.2308 5.07692 30.0329 5.07692 21.1538H2.53846H2.39098e-07C2.39098e-07 32.8368 9.4709 42.3077 21.1538 42.3077V39.7692ZM2.53846 21.1538H5.07692C5.07692 12.2748 12.2748 5.07692 21.1538 5.07692V2.53846V2.39097e-07C9.4709 4.78195e-07 2.39098e-07 9.4709 2.39098e-07 21.1538H2.53846ZM21.1538 2.53846V5.07692H200.538V2.53846V2.39097e-07H21.1538V2.53846Z" fill="#232323" mask="url(#path-1-outside-1_1_1173)"/>
</svg>
