<svg width="210" height="91" viewBox="0 0 210 91" fill="none" xmlns="http://www.w3.org/2000/svg">
<mask id="path-1-outside-1_1_1193" maskUnits="userSpaceOnUse" x="-0.47043" y="-0.47043" width="210.753" height="91.3262" fill="black">
<rect fill="white" x="-0.47043" y="-0.47043" width="210.753" height="91.3262"/>
<path d="M180.363 2.54032C195.328 2.54034 207.46 14.672 207.46 29.6371V48.2661C207.46 63.2313 195.328 75.3629 180.363 75.3629H62.7965L55.4637 88.0645L48.1309 75.3629H29.6371C14.672 75.3629 2.54032 63.2313 2.54032 48.2661V29.6371C2.54032 14.672 14.672 2.54032 29.6371 2.54032H180.363Z"/>
</mask>
<path d="M180.363 2.54032C195.328 2.54034 207.46 14.672 207.46 29.6371V48.2661C207.46 63.2313 195.328 75.3629 180.363 75.3629H62.7965L55.4637 88.0645L48.1309 75.3629H29.6371C14.672 75.3629 2.54032 63.2313 2.54032 48.2661V29.6371C2.54032 14.672 14.672 2.54032 29.6371 2.54032H180.363Z" fill="white"/>
<path d="M180.363 2.54032V2.39273e-07V2.54032ZM207.46 48.2661H210H207.46ZM180.363 75.3629V77.9032V75.3629ZM62.7965 75.3629V72.8226C61.8889 72.8226 61.0503 73.3068 60.5965 74.0928L62.7965 75.3629ZM55.4637 88.0645L53.2637 89.3346C53.7175 90.1206 54.5561 90.6048 55.4637 90.6048C56.3713 90.6048 57.21 90.1206 57.6637 89.3346L55.4637 88.0645ZM48.1309 75.3629L50.3309 74.0928C49.8771 73.3068 49.0385 72.8226 48.1309 72.8226V75.3629ZM2.54032 48.2661H2.39273e-07H2.54032ZM180.363 2.54032V5.08064C193.925 5.08066 204.919 16.075 204.919 29.6371H207.46H210C210 13.269 196.731 1.69884e-05 180.363 2.39273e-07V2.54032ZM207.46 29.6371H204.919V48.2661H207.46H210V29.6371H207.46ZM207.46 48.2661H204.919C204.919 61.8283 193.925 72.8226 180.363 72.8226V75.3629V77.9032C196.731 77.9032 210 64.6342 210 48.2661H207.46ZM180.363 75.3629V72.8226H62.7965V75.3629V77.9032H180.363V75.3629ZM62.7965 75.3629L60.5965 74.0928L53.2637 86.7944L55.4637 88.0645L57.6637 89.3346L64.9966 76.633L62.7965 75.3629ZM55.4637 88.0645L57.6637 86.7944L50.3309 74.0928L48.1309 75.3629L45.9309 76.633L53.2637 89.3346L55.4637 88.0645ZM48.1309 75.3629V72.8226H29.6371V75.3629V77.9032H48.1309V75.3629ZM29.6371 75.3629V72.8226C16.0749 72.8226 5.08065 61.8283 5.08064 48.2661H2.54032H2.39273e-07C1.67491e-06 64.6342 13.269 77.9032 29.6371 77.9032V75.3629ZM2.54032 48.2661H5.08064V29.6371H2.54032H2.39273e-07V48.2661H2.54032ZM2.54032 29.6371H5.08064C5.08064 16.0749 16.0749 5.08064 29.6371 5.08064V2.54032V2.39273e-07C13.269 2.39273e-07 2.39273e-07 13.269 2.39273e-07 29.6371H2.54032ZM29.6371 2.54032V5.08064H180.363V2.54032V2.39273e-07H29.6371V2.54032Z" fill="#232323" mask="url(#path-1-outside-1_1_1193)"/>
</svg>
