<svg width="245" height="55" viewBox="0 0 245 55" fill="none" xmlns="http://www.w3.org/2000/svg">
<mask id="path-1-outside-1_1_1188" maskUnits="userSpaceOnUse" x="-0.844828" y="-0.469349" width="246.314" height="56.0715" fill="black">
<rect fill="white" x="-0.844828" y="-0.469349" width="246.314" height="56.0715"/>
<path d="M21.1207 2.53448C10.8558 2.5345 2.53448 10.8558 2.53448 21.1207C2.53448 31.3856 10.8558 39.7069 21.1207 39.7069H189.741L196.068 52.3793L202.396 39.7069H223.879C234.144 39.7069 242.466 31.3856 242.466 21.1207C242.466 10.8558 234.144 2.53448 223.879 2.53448H21.1207Z"/>
</mask>
<path d="M21.1207 2.53448C10.8558 2.5345 2.53448 10.8558 2.53448 21.1207C2.53448 31.3856 10.8558 39.7069 21.1207 39.7069H189.741L196.068 52.3793L202.396 39.7069H223.879C234.144 39.7069 242.466 31.3856 242.466 21.1207C242.466 10.8558 234.144 2.53448 223.879 2.53448H21.1207Z" fill="white"/>
<path d="M21.1207 2.53448V2.38724e-07V2.53448ZM21.1207 39.7069V42.2414V39.7069ZM189.741 39.7069V37.1724C190.702 37.1724 191.58 37.7154 192.009 38.5747L189.741 39.7069ZM196.068 52.3793L198.336 53.5115C197.907 54.3708 197.029 54.9138 196.068 54.9138C195.108 54.9138 194.23 54.3708 193.801 53.5115L196.068 52.3793ZM202.396 39.7069L200.128 38.5747C200.557 37.7154 201.435 37.1724 202.396 37.1724V39.7069ZM223.879 39.7069V42.2414V39.7069ZM223.879 2.53448V2.38724e-07V2.53448ZM21.1207 2.53448V5.06897C12.2556 5.06898 5.06897 12.2556 5.06897 21.1207H2.53448H0C0 9.45606 9.45608 2.19625e-05 21.1207 2.38724e-07V2.53448ZM2.53448 21.1207H5.06897C5.06897 29.9858 12.2556 37.1724 21.1207 37.1724V39.7069V42.2414C9.45608 42.2414 0 32.7853 0 21.1207H2.53448ZM21.1207 39.7069V37.1724H189.741V39.7069V42.2414H21.1207V39.7069ZM189.741 39.7069L192.009 38.5747L198.336 51.2471L196.068 52.3793L193.801 53.5115L187.473 40.8391L189.741 39.7069ZM196.068 52.3793L193.801 51.2471L200.128 38.5747L202.396 39.7069L204.663 40.8391L198.336 53.5115L196.068 52.3793ZM202.396 39.7069V37.1724H223.879V39.7069V42.2414H202.396V39.7069ZM223.879 39.7069V37.1724C232.744 37.1724 239.931 29.9858 239.931 21.1207H242.466H245C245 32.7853 235.544 42.2414 223.879 42.2414V39.7069ZM242.466 21.1207H239.931C239.931 12.2556 232.744 5.06897 223.879 5.06897V2.53448V2.38724e-07C235.544 9.54893e-07 245 9.45606 245 21.1207H242.466ZM223.879 2.53448V5.06897H21.1207V2.53448V2.38724e-07H223.879V2.53448Z" fill="#232323" mask="url(#path-1-outside-1_1_1188)"/>
</svg>
