<svg width="222" height="35" viewBox="0 0 222 35" fill="none" xmlns="http://www.w3.org/2000/svg">
<mask id="path-1-outside-1_1_984" maskUnits="userSpaceOnUse" x="-0.320503" y="-0.320503" width="222.641" height="35.1011" fill="black">
<rect fill="white" x="-0.320503" y="-0.320503" width="222.641" height="35.1011"/>
<path d="M204.77 1.68527C213.355 1.68527 220.315 8.64501 220.315 17.23C220.315 25.8152 213.355 32.7748 204.77 32.7748H17.23C8.6449 32.7748 1.68527 25.8152 1.68527 17.23C1.6854 8.64501 8.64498 1.68527 17.23 1.68527H204.77Z"/>
</mask>
<path d="M204.77 1.68527C213.355 1.68527 220.315 8.64501 220.315 17.23C220.315 25.8152 213.355 32.7748 204.77 32.7748H17.23C8.6449 32.7748 1.68527 25.8152 1.68527 17.23C1.6854 8.64501 8.64498 1.68527 17.23 1.68527H204.77Z" fill="#EFF0E6"/>
<path d="M220.315 17.23H222V17.23L220.315 17.23ZM204.77 32.7748V34.46V32.7748ZM1.68527 17.23L1.7933e-05 17.23V17.23H1.68527ZM17.23 1.68527V1.7933e-05V1.68527ZM204.77 1.68527V3.37053C212.424 3.37053 218.629 9.57573 218.629 17.2301L220.315 17.23L222 17.23C222 7.71429 214.286 1.7933e-05 204.77 1.7933e-05V1.68527ZM220.315 17.23H218.629C218.629 24.8844 212.424 31.0895 204.77 31.0895V32.7748V34.46C214.286 34.46 222 26.7459 222 17.23H220.315ZM204.77 32.7748V31.0895H17.23V32.7748V34.46H204.77V32.7748ZM17.23 32.7748V31.0895C9.57564 31.0895 3.37053 24.8844 3.37053 17.23H1.68527H1.7933e-05C1.7933e-05 26.7459 7.71416 34.46 17.23 34.46V32.7748ZM1.68527 17.23L3.37053 17.2301C3.37064 9.57573 9.57574 3.37053 17.23 3.37053V1.68527V1.7933e-05C7.71421 1.82917e-05 0.000164625 7.71429 1.7933e-05 17.23L1.68527 17.23ZM17.23 1.68527V3.37053H204.77V1.68527V1.7933e-05H17.23V1.68527Z" fill="#232323" mask="url(#path-1-outside-1_1_984)"/>
</svg>
