<svg width="41" height="64" viewBox="0 0 41 64" fill="none" xmlns="http://www.w3.org/2000/svg">
<path d="M19.8997 64C12.8372 63.9321 9.26221 59.4393 9.26221 50.6441V30.2344C9.26221 25.5247 9.04534 22.4491 4.7759 18.712C-0.297489 14.2716 -0.00614099 1.88171 0.00700251 1.35597C0.0289083 0.60022 0.648843 0 1.4024 0H39.0914C39.8471 0 40.4649 0.60022 40.4868 1.35597C40.5021 1.88171 40.7935 14.2716 35.7201 18.712C31.4484 22.4491 31.2316 25.5269 31.2316 30.2344V50.6441C31.2316 59.4393 27.6565 63.9321 20.6072 64H19.8997ZM6.6138 16.6112C11.6631 21.0318 12.0552 25.0449 12.0552 30.2344V50.6441C12.0552 59.9409 16.2567 61.172 19.915 61.2092H20.4517L20.5963 62.6046L20.5831 61.2092C24.2414 61.1742 28.4429 59.9409 28.4429 50.6441V30.2344C28.4429 25.0449 28.8329 21.0318 33.8844 16.6112C35.6171 15.0931 36.5985 12.0022 37.133 8.91129H3.36516C3.89748 12 4.87886 15.0931 6.6138 16.6112ZM37.501 6.12049C37.6215 4.885 37.6806 3.73713 37.6982 2.7908H2.79561C2.81533 3.73713 2.87228 4.885 2.99277 6.12049H37.501ZM16.6094 23.0077V17.4261C16.6094 15.4217 18.2348 13.7985 20.237 13.7985C22.2392 13.7985 23.8668 15.4239 23.8668 17.4261V23.0077C23.8668 25.0099 22.2414 26.6353 20.237 26.6353C18.2326 26.6353 16.6094 25.0099 16.6094 23.0077ZM19.4002 17.4239V23.0055C19.3805 23.4808 19.7617 23.8773 20.237 23.8773C20.7124 23.8773 21.0935 23.4808 21.0738 23.0055V17.4239C21.0935 16.9485 20.7124 16.552 20.237 16.552C19.7617 16.552 19.3805 16.9485 19.4002 17.4239Z" fill="#232323"/>
</svg>
